PathFileType	4	(X/Y/Z)	TVC_26_BWA4_walk_RCNL2025.trc
DataRate	CameraRate	NumFrames	NumMarkers	Units	OrigDataRate	OrigDataStartFrame	OrigNumFrames
100	100	7	27	mm	100	364	415
Frame#	Time	R_Shoulder			L_Shoulder			C7			J_Notch			R_Elbow			L_Elbow			R_Wrist			L_Wrist			R_Asis			L_Asis			R_Psis			L_Psis			Sacral			Thoracic			Sternum			R_Thigh_Lateral			R_Knee_Lateral			R_Shank_Lateral			R_Ankle_Lateral			R_Heel			R_Toe			L_Thigh_Lateral			L_Knee_Lateral			L_Shank_Lateral			L_Ankle_Lateral			L_Heel			L_Toe		
		X1	Y1	Z1	X2	Y2	Z2	X3	Y3	Z3	X4	Y4	Z4	X5	Y5	Z5	X6	Y6	Z6	X7	Y7	Z7	X8	Y8	Z8	X9	Y9	Z9	X10	Y10	Z10	X11	Y11	Z11	X12	Y12	Z12	X13	Y13	Z13	X14	Y14	Z14	X15	Y15	Z15	X16	Y16	Z16	X17	Y17	Z17	X18	Y18	Z18	X19	Y19	Z19	X20	Y20	Z20	X21	Y21	Z21	X22	Y22	Z22	X23	Y23	Z23	X24	Y24	Z24	X25	Y25	Z25	X26	Y26	Z26	X27	Y27	Z27
364	3.63000000	1131.020264	1369.491943	-455.804230	1093.911743	1364.854126	-773.943665	1038.790527	1402.457886	-601.196777	1188.420410	1311.133911	-612.615662	1128.890503	1039.188721	-314.887390	1055.814575	1036.534668	-873.709045	1192.331055	842.216858	-253.595024	1205.601929	870.131317	-838.320160	1225.063354	963.738525	-442.072784	1197.892822	955.391602	-727.556580	1007.560791	956.940491	-493.560425	997.131348	945.955933	-640.440002	1002.346069	951.448212	-567.000214	988.915161	1121.175903	-588.794312	1247.096924	1076.887329	-613.369324	1207.968384	569.995544	-412.040497	1239.086670	452.034760	-484.348022	1212.840820	266.517059	-447.865997	1168.645020	72.118599	-519.008118	1115.888672	57.770763	-563.978333	1301.942017	45.011696	-551.234863	1196.636230	589.334839	-791.313782	1184.571899	459.720428	-732.580872	1039.541504	291.656738	-730.364258	915.677063	163.030548	-622.773560	887.697693	180.984390	-558.546448	1000.101562	55.111237	-629.462830
365	3.64000000	1136.776001	1370.031982	-456.143036	1098.921875	1365.456055	-774.148621	1044.175171	1403.193115	-601.309143	1193.579956	1311.524292	-612.998169	1137.059326	1039.952759	-314.622467	1060.914917	1037.051392	-873.798889	1203.783936	843.968475	-253.921379	1211.371094	871.390991	-838.459656	1229.655518	963.613159	-442.775574	1201.633911	955.321167	-728.346008	1011.857117	957.768372	-493.645599	1001.122314	946.602234	-640.399231	1006.489716	952.185303	-567.022415	993.648376	1122.110474	-588.716553	1251.649658	1076.893066	-614.078674	1213.392212	570.240356	-412.514923	1240.429077	451.824921	-485.018158	1213.899536	266.359802	-448.372345	1168.768921	72.154343	-519.098694	1115.920410	57.800808	-564.061340	1301.991333	44.961483	-551.431702	1205.224243	591.197327	-794.439209	1197.850952	461.191132	-736.367371	1053.517212	293.518280	-735.189697	930.787415	163.460037	-628.434143	903.215332	180.004715	-563.504822	1015.736389	56.574543	-639.007996
366	3.65000000	1142.547119	1370.465698	-456.511383	1103.948853	1366.014404	-774.379333	1049.564331	1403.881836	-601.436462	1198.728394	1311.833374	-613.410889	1145.310547	1040.623291	-314.438110	1065.993042	1037.522949	-873.903137	1215.434814	845.688568	-254.444382	1217.074280	872.559509	-838.572052	1234.087891	963.449646	-443.426178	1205.351440	955.233154	-729.223572	1016.040466	958.524475	-493.821869	1005.052917	947.206726	-640.432800	1010.546692	952.865601	-567.127335	998.319397	1123.018066	-588.681580	1256.140259	1076.806763	-614.916260	1218.812622	570.423645	-413.096924	1241.807983	451.589813	-485.715393	1214.781250	266.202026	-448.848267	1168.893066	72.198479	-519.198730	1115.947754	57.851521	-564.153870	1302.037354	44.919483	-551.626526	1213.842529	593.120605	-797.354919	1211.062500	462.986847	-739.885986	1067.874268	295.378662	-740.227722	946.971191	162.888672	-634.504639	919.557251	177.849701	-568.990784	1033.137695	57.629238	-648.664551
367	3.66000000	1148.323853	1370.807861	-456.911346	1108.991455	1366.534912	-774.637695	1054.954102	1404.528564	-601.582825	1203.864502	1312.071899	-613.853638	1153.634521	1041.209839	-314.349335	1071.050415	1037.958008	-874.025757	1227.255615	847.381500	-255.193954	1222.706299	873.636566	-838.659332	1238.371338	963.275513	-444.012695	1209.063110	955.188171	-730.171753	1020.129761	959.214417	-494.091583	1008.945007	947.780212	-640.547852	1014.537384	953.497314	-567.319717	1002.937866	1123.898682	-588.691650	1260.576416	1076.652466	-615.863037	1224.067505	570.569702	-413.764923	1243.192139	451.342590	-486.417572	1215.498779	266.050049	-449.278198	1169.006470	72.243980	-519.307678	1115.966187	57.919708	-564.254395	1302.075806	44.887276	-551.810486	1222.543091	595.095825	-800.053528	1224.182861	465.079163	-743.137756	1082.695557	297.104492	-745.454773	964.201538	161.323288	-640.985107	936.665527	174.604691	-575.051819	1052.214355	58.221497	-658.198303
368	3.67000000	1154.095947	1371.074097	-457.344116	1114.047119	1367.023438	-774.925049	1060.340454	1405.138062	-601.751526	1208.987183	1312.250977	-614.325684	1162.020874	1041.722168	-314.370148	1076.087280	1038.365601	-874.170410	1239.216370	849.051880	-256.197945	1228.258850	874.623016	-838.723877	1242.520508	963.116089	-444.526886	1212.785889	955.238892	-731.170349	1024.145508	959.844543	-494.455750	1012.821106	948.331909	-640.750305	1018.483307	954.088226	-567.603027	1007.514404	1124.751831	-588.748474	1264.967285	1076.454468	-616.895935	1229.027100	570.696838	-414.491882	1244.551880	451.094910	-487.106049	1216.076050	265.911865	-449.654083	1169.100342	72.284615	-519.424438	1115.972168	58.000877	-564.361511	1302.103638	44.866138	-551.974731	1231.374634	597.117615	-802.527039	1237.182983	467.428528	-746.124817	1098.054810	298.564850	-750.830933	982.444580	158.805298	-647.857788	954.494934	170.372910	-581.699768	1072.849731	58.336800	-667.426453
369	3.68000000	1159.852539	1371.279663	-457.810059	1119.112183	1367.485596	-775.242188	1065.718872	1405.714233	-601.945618	1214.095215	1312.382080	-614.825806	1170.458496	1042.170288	-314.513275	1081.101562	1038.753784	-874.340210	1251.285950	850.703949	-257.481239	1233.720764	875.520081	-838.768890	1246.554077	962.992798	-444.964447	1216.535645	955.425598	-732.198730	1028.108887	960.421082	-494.914093	1016.703674	948.869263	-641.045349	1022.406281	954.645172	-567.979721	1012.059937	1125.576050	-588.853394	1269.323242	1076.234741	-617.988586	1233.600586	570.816650	-415.250580	1245.861938	450.856476	-487.766357	1216.540161	265.796265	-449.974426	1169.168457	72.315720	-519.547546	1115.963745	58.089390	-564.473877	1302.118164	44.857025	-552.111572	1240.377930	599.185425	-804.770203	1250.024536	469.988739	-748.849854	1113.997803	299.654297	-756.306274	1001.661499	155.409348	-655.087402	973.017761	165.267670	-588.908569	1094.909668	58.002663	-676.230408
370	3.69000000	1165.582886	1371.438843	-458.308685	1124.182495	1367.925903	-775.589355	1071.084839	1406.260498	-602.167297	1219.187378	1312.476074	-615.352295	1178.936035	1042.563232	-314.789917	1086.090454	1039.130127	-874.538086	1263.432617	852.341431	-259.065231	1239.079468	876.329376	-838.798279	1250.493896	962.922241	-445.325104	1220.327148	955.773071	-733.237732	1032.041748	960.949768	-495.465332	1020.614380	949.397400	-641.436768	1026.328064	955.173584	-568.451050	1016.585754	1126.369141	-589.007385	1273.655640	1076.012939	-619.113098	1237.737061	570.932434	-416.019196	1247.103760	450.634857	-488.388580	1216.914551	265.711639	-450.243195	1169.207886	72.334702	-519.674988	1115.940063	58.178974	-564.590332	1302.117798	44.860298	-552.215149	1249.580933	601.301636	-806.782349	1262.657837	472.710571	-751.316101	1130.536255	300.306061	-761.825439	1021.810303	151.240204	-662.623535	992.225037	159.406723	-596.617493	1118.248901	57.287403	-684.558960
